<svg xmlns="http://www.w3.org/2000/svg" version="1.1" xmlns:xlink="http://www.w3.org/1999/xlink" xmlns:svgjs="http://svgjs.dev/svgjs" width="1500" height="2421" viewBox="0 0 1500 2421"><g transform="matrix(1,0,0,1,-1.1274509803916999,0.980161943319672)"><svg viewBox="0 0 153 247" data-background-color="#293040" preserveAspectRatio="xMidYMid meet" height="2421" width="1500" xmlns="http://www.w3.org/2000/svg" xmlns:xlink="http://www.w3.org/1999/xlink"><g id="tight-bounds" transform="matrix(1,0,0,1,0.11499999999995225,-0.09999999999999432)"><svg viewBox="0 0 152.7696 247.2" height="247.2" width="152.7696"><g><svg></svg></g><g><svg viewBox="0 0 152.7696 247.2" height="247.2" width="152.7696"><g transform="matrix(1,0,0,1,0,47.215199999999996)"><svg viewBox="0 0 152.7696 152.7696" height="152.7696" width="152.7696"><g><svg viewBox="0 0 152.7696 152.7696" height="152.7696" width="152.7696"><g><svg viewBox="0 0 152.7696 152.7696" height="152.7696" width="152.7696"><g id="textblocktransform"><svg viewBox="0 0 152.7696 152.7696" height="152.7696" width="152.7696" id="textblock"><g><svg viewBox="0 0 152.7696 152.7696" height="152.7696" width="152.7696"><g transform="matrix(1,0,0,1,40.3766599602812,40.3766599602812)"><svg viewBox="0 0 72.01628007943759 72.01628007943759" height="72.01628007943759" width="72.01628007943759"><g id="icon-0"><circle r="36" cx="36.008140039718796" cy="36.008140039718796" fill="#c9ad8b" data-fill-palette-color="accent"></circle></g></svg></g><g id="text-0"><path d="M41.225 6.386v0c0.16 0.108 0.295 0.264 0.405 0.468v0c0.095 0.174 0.163 0.379 0.204 0.613 0.039 0.244 0.008 0.459-0.093 0.646v0c0.025 0.29 0.027 0.538 0.006 0.744-0.024 0.2-0.042 0.396-0.054 0.59v0c0.01 0.104 0.016 0.202 0.019 0.293 0.006 0.098 0.002 0.205-0.012 0.322v0c-0.001 0.07-0.012 0.228-0.035 0.474-0.026 0.24-0.045 0.491-0.058 0.755-0.022 0.261-0.031 0.503-0.026 0.726 0.002 0.233 0.014 0.37 0.036 0.412v0c0.026 0.048 0.113 0.079 0.261 0.093 0.153 0.01 0.258 0.024 0.313 0.04v0c0.089 0.022 0.178 0.048 0.265 0.078 0.081 0.034 0.167 0.065 0.26 0.093v0c0.188 0.031 0.371 0.067 0.55 0.11 0.185 0.04 0.375 0.089 0.569 0.146v0c0.373 0.086 0.751 0.157 1.133 0.215 0.378 0.052 0.746 0.156 1.103 0.313v0c0.231-0.047 0.437 0.024 0.618 0.214 0.181 0.19 0.315 0.394 0.401 0.611v0c0.044 0.023 0.083 0.045 0.117 0.065 0.038 0.026 0.081 0.057 0.131 0.092v0c0.101 0.186 0.149 0.339 0.144 0.459-0.005 0.12-0.004 0.259 0.005 0.418v0c0.005 0.153 0.031 0.294 0.078 0.424 0.044 0.124 0.065 0.249 0.063 0.375v0c-0.004 0.049-0.021 0.097-0.05 0.144-0.029 0.047-0.044 0.098-0.046 0.153v0c-0.002 0.11 0.012 0.231 0.044 0.361 0.029 0.125 0.048 0.246 0.058 0.365v0c0.016 0.116 0.021 0.233 0.017 0.353-0.002 0.126 0.005 0.246 0.021 0.362v0c0.005 0.067 0.022 0.148 0.049 0.242 0.028 0.094 0.006 0.183-0.064 0.269v0c0.054 0.243 0.084 0.492 0.089 0.745 0.015 0.257 0.049 0.507 0.102 0.75v0c-0.089 0.095-0.185 0.233-0.289 0.413-0.107 0.19-0.206 0.31-0.296 0.359v0c-0.036 0.02-0.076 0.018-0.119-0.005-0.044-0.023-0.096-0.034-0.157-0.032v0c-0.031 0.001-0.064 0.019-0.1 0.054-0.03 0.032-0.056 0.054-0.08 0.067v0c-0.06 0.033-0.118 0.033-0.175 0.001-0.053-0.026-0.11-0.038-0.171-0.035v0c-0.03 0.032-0.059 0.063-0.088 0.094-0.024 0.028-0.053 0.052-0.09 0.072v0c-0.084 0.046-0.144 0.051-0.178 0.015-0.035-0.036-0.092-0.055-0.172-0.058v0c-0.177 0.003-0.295-0.019-0.351-0.067-0.053-0.041-0.111-0.061-0.172-0.058v0c-0.082-0.352-0.129-0.704-0.141-1.056-0.006-0.355-0.022-0.708-0.049-1.059v0c-0.016-0.116-0.02-0.23-0.011-0.344 0.012-0.108 0.016-0.222 0.012-0.345v0c-0.01-0.104-0.015-0.237-0.018-0.399 0-0.171-0.007-0.343-0.022-0.514-0.018-0.177-0.036-0.339-0.053-0.485-0.026-0.149-0.062-0.266-0.108-0.35v0c-0.088-0.162-0.2-0.261-0.335-0.296v0c-0.496-0.097-0.974-0.211-1.435-0.343-0.46-0.132-0.939-0.261-1.437-0.389v0c-0.312-0.072-0.644-0.141-0.998-0.205v0c-0.068-0.01-0.133-0.045-0.196-0.104-0.063-0.059-0.134-0.103-0.211-0.131v0c-0.05-0.035-0.103-0.053-0.158-0.054-0.061 0.002-0.117-0.015-0.167-0.05v0c-0.062-0.029-0.117-0.073-0.165-0.132-0.045-0.054-0.107-0.082-0.187-0.086v0c-0.093-0.028-0.181-0.026-0.266 0.004-0.091 0.034-0.182 0.037-0.275 0.009v0c0.017-0.056 0.012-0.1-0.014-0.132-0.029-0.039-0.053-0.076-0.072-0.113v0c-0.046-0.084-0.042-0.164 0.01-0.239 0.053-0.075 0.054-0.158 0.006-0.248v0c-0.01-0.119-0.01-0.197 0.001-0.234v0c-0.04-0.39-0.059-0.777-0.057-1.16 0.009-0.386 0.02-0.774 0.035-1.163v0c0.011-0.123 0.019-0.244 0.025-0.363 0.005-0.12 0.01-0.239 0.016-0.359v0c-0.01-0.104-0.017-0.197-0.023-0.279-0.006-0.082 0.007-0.167 0.037-0.254v0c0.058-0.28 0.1-0.533 0.127-0.757 0.017-0.227-0.008-0.474-0.075-0.742v0c-0.021-0.067-0.041-0.161-0.06-0.283-0.023-0.128-0.035-0.258-0.036-0.389-0.005-0.138-0.003-0.263 0.006-0.376 0.015-0.117 0.058-0.195 0.13-0.234v0c0.06-0.033 0.157-0.054 0.292-0.065 0.14-0.014 0.259-0.032 0.356-0.053v0c0.079-0.012 0.163-0.03 0.251-0.054 0.088-0.024 0.168-0.056 0.24-0.096v0c0.042-0.023 0.079-0.062 0.111-0.118 0.032-0.056 0.078-0.101 0.138-0.133v0c0.096-0.052 0.192-0.084 0.286-0.097 0.101-0.016 0.202-0.043 0.305-0.083z" fill="#d5b263" data-fill-palette-color="primary"></path><path d="M101.117 17.976l-0.129-0.066c-0.116 0.127-0.291 0.208-0.528 0.243v0c-0.073-0.083-0.13-0.171-0.17-0.265-0.049-0.089-0.119-0.171-0.209-0.245v0c-0.025-0.182-0.051-0.296-0.078-0.341-0.024-0.037-0.059-0.071-0.107-0.101v0c-0.056-0.091-0.094-0.191-0.114-0.3-0.021-0.108-0.05-0.202-0.089-0.279v0c-0.021-0.022-0.056-0.08-0.103-0.176-0.047-0.096-0.096-0.195-0.147-0.3-0.047-0.096-0.091-0.19-0.131-0.283-0.04-0.093-0.067-0.142-0.08-0.147v0c-0.09-0.117-0.163-0.233-0.218-0.346v0c-0.013-0.048-0.027-0.1-0.044-0.156-0.017-0.056-0.034-0.102-0.051-0.136v0c-0.09-0.074-0.152-0.157-0.186-0.248-0.043-0.087-0.078-0.186-0.105-0.297-0.027-0.111-0.064-0.214-0.112-0.309-0.043-0.087-0.103-0.165-0.179-0.235v0c-0.046-0.16-0.117-0.304-0.211-0.43-0.103-0.122-0.18-0.257-0.231-0.404v0c-0.04-0.115-0.092-0.227-0.157-0.335-0.062-0.115-0.131-0.229-0.208-0.342v0c-0.019-0.093-0.062-0.231-0.13-0.414-0.066-0.189-0.138-0.304-0.218-0.345v0c-0.112 0.287-0.223 0.578-0.331 0.874-0.106 0.289-0.215 0.577-0.328 0.864v0c-0.051 0.149-0.102 0.309-0.153 0.479-0.049 0.164-0.108 0.328-0.179 0.492v0c-0.033 0.054-0.071 0.113-0.114 0.177-0.044 0.065-0.079 0.136-0.106 0.214v0c-0.051 0.149-0.094 0.243-0.129 0.281-0.035 0.039-0.065 0.075-0.091 0.11v0c-0.081 0.11-0.17 0.253-0.266 0.429-0.094 0.17-0.208 0.291-0.341 0.361v0c-0.147-0.036-0.252-0.086-0.316-0.151v0c-0.028 0.019-0.06 0.037-0.095 0.054-0.035 0.017-0.078 0.017-0.13-0.001v0c-0.017-0.035-0.051-0.072-0.103-0.111-0.052-0.039-0.09-0.063-0.116-0.072v0c-0.058-0.02-0.127-0.029-0.208-0.028-0.08 0.002-0.152-0.009-0.217-0.031v0c-0.058-0.02-0.105-0.054-0.138-0.101-0.034-0.048-0.084-0.083-0.149-0.105v0c-0.039-0.013-0.091-0.009-0.156 0.012-0.065 0.021-0.12 0.024-0.165 0.008v0c-0.065-0.022-0.116-0.051-0.156-0.085-0.039-0.035-0.082-0.068-0.129-0.099v0c0.013-0.039 0.03-0.077 0.05-0.113 0.02-0.037 0.03-0.077 0.03-0.12v0l0.085-0.502c0.042-0.08 0.088-0.162 0.138-0.246 0.05-0.084 0.095-0.163 0.135-0.236v0c0.082-0.196 0.156-0.384 0.225-0.563 0.071-0.186 0.138-0.372 0.202-0.56v0c0.113-0.33 0.22-0.655 0.322-0.974 0.102-0.319 0.216-0.642 0.341-0.968v0c0.053-0.112 0.109-0.223 0.168-0.333 0.061-0.116 0.111-0.23 0.149-0.339v0c0.113-0.33 0.243-0.647 0.39-0.952 0.147-0.304 0.29-0.617 0.429-0.937v0c0.112-0.244 0.21-0.488 0.294-0.735 0.082-0.24 0.164-0.479 0.246-0.718v0c0.159-0.466 0.312-0.934 0.458-1.405 0.144-0.464 0.295-0.926 0.452-1.386v0c0.051-0.149 0.128-0.354 0.231-0.615 0.101-0.255 0.156-0.456 0.164-0.606v0c0.139-0.365 0.263-0.727 0.371-1.087v0c0.061-0.008 0.103-0.037 0.128-0.087 0.022-0.043 0.042-0.091 0.059-0.142v0l0.093-0.272c0.152-0.085 0.267-0.115 0.345-0.088v0c0.065 0.022 0.124 0.05 0.178 0.082 0.06 0.035 0.117 0.08 0.171 0.134v0c0.179 0.025 0.287 0.058 0.323 0.1 0.045 0.037 0.096 0.08 0.152 0.128v0c0.108 0.022 0.194 0.005 0.257-0.053v0c0.127 0.072 0.185 0.125 0.174 0.157-0.013 0.039-0.014 0.082-0.001 0.13v0c0.125 0.057 0.213 0.076 0.262 0.057 0.056-0.017 0.119-0.021 0.188-0.012v0c0.108 0.066 0.174 0.125 0.2 0.177v0c-0.027 0.078-0.04 0.171-0.041 0.279 0.008 0.104-0.015 0.234-0.067 0.389v0c-0.038 0.11-0.082 0.218-0.133 0.323-0.051 0.106-0.092 0.207-0.125 0.304v0c-0.062 0.181-0.114 0.355-0.157 0.521-0.045 0.173-0.097 0.347-0.156 0.522v0c-0.018 0.052-0.038 0.099-0.06 0.142-0.022 0.043-0.042 0.091-0.059 0.142v0c-0.164 0.479-0.317 0.969-0.459 1.47-0.144 0.507-0.301 1.007-0.469 1.499v0c-0.009 0.026-0.027 0.059-0.056 0.101-0.028 0.041-0.034 0.079-0.017 0.113v0c0.3-0.158 0.568-0.341 0.806-0.549 0.244-0.206 0.496-0.405 0.757-0.598v0c0.213-0.137 0.447-0.314 0.702-0.53 0.246-0.212 0.464-0.405 0.653-0.579v0c0.078-0.06 0.149-0.119 0.213-0.177 0.065-0.064 0.134-0.128 0.206-0.19v0c0.048-0.056 0.105-0.105 0.169-0.148 0.063-0.036 0.121-0.089 0.174-0.158v0c0.1-0.081 0.193-0.162 0.277-0.241 0.076-0.075 0.164-0.153 0.265-0.235v0c0.1-0.081 0.199-0.149 0.297-0.202 0.1-0.06 0.195-0.125 0.283-0.196v0c0.159-0.126 0.326-0.257 0.503-0.392 0.168-0.131 0.327-0.268 0.477-0.412v0c0.152-0.021 0.29-0.056 0.416-0.107 0.132-0.049 0.268-0.086 0.407-0.111v0c0.066 0.21 0.116 0.358 0.152 0.442 0.036 0.085 0.102 0.147 0.197 0.187v0c0.013 0.048 0.013 0.099 0.002 0.152-0.011 0.054-0.002 0.101 0.028 0.14v0c0.151 0.066 0.242 0.097 0.272 0.093v0c0.01 0.076 0.045 0.142 0.105 0.199 0.06 0.057 0.119 0.106 0.178 0.147v0c-0.013 0.039-0.028 0.081-0.043 0.126-0.015 0.045-0.021 0.083-0.017 0.114v0c0.127 0.116 0.16 0.261 0.1 0.436v0c-0.388 0.352-0.789 0.67-1.204 0.954-0.418 0.291-0.809 0.624-1.176 0.998v0c-0.111 0.114-0.231 0.221-0.359 0.321-0.126 0.094-0.236 0.205-0.331 0.332v0c-0.122 0.06-0.224 0.126-0.306 0.199-0.085 0.079-0.182 0.151-0.291 0.215v0c-0.067 0.049-0.138 0.097-0.212 0.145-0.076 0.054-0.151 0.104-0.225 0.151v0c-0.152 0.107-0.292 0.218-0.418 0.334-0.135 0.12-0.284 0.228-0.447 0.325v0c-0.115 0.105-0.246 0.202-0.391 0.289v0c-0.152 0.107-0.293 0.233-0.422 0.376-0.124 0.153-0.262 0.279-0.411 0.38v0c-0.157 0.12-0.25 0.214-0.282 0.284-0.029 0.063-0.101 0.168-0.216 0.316v0c0.038 0.165 0.095 0.325 0.172 0.482 0.077 0.156 0.16 0.304 0.249 0.443v0c0.055 0.178 0.129 0.341 0.224 0.488 0.098 0.157 0.197 0.324 0.295 0.502v0c0.03 0.061 0.056 0.12 0.08 0.179 0.023 0.059 0.054 0.116 0.092 0.173v0c0.083 0.202 0.201 0.405 0.356 0.609 0.146 0.209 0.288 0.406 0.427 0.591v0c0.092 0.176 0.21 0.39 0.356 0.642 0.149 0.261 0.302 0.533 0.458 0.818 0.156 0.285 0.292 0.552 0.409 0.801 0.113 0.241 0.16 0.387 0.143 0.439v0c-0.129 0.166-0.24 0.258-0.333 0.277-0.1 0.017-0.184 0.064-0.254 0.141v0c-0.087-0.001-0.134 0.012-0.144 0.038-0.007 0.019-0.04 0.055-0.101 0.106v0c-0.106 0.036-0.206 0.085-0.3 0.147-0.091 0.056-0.183 0.111-0.273 0.167v0c-0.061 0.008-0.114 0.015-0.16 0.021-0.052 0.004-0.1 0.027-0.143 0.071z" fill="#d5b263" data-fill-palette-color="primary"></path><path d="M0 75.792c0-3.224 2.613-5.837 5.837-5.837 3.224 0 5.837 2.613 5.837 5.837 0 3.224-2.613 5.837-5.837 5.837-3.224 0-5.837-2.613-5.837-5.837z" fill="#d5b263" data-fill-palette-color="primary"></path><path d="M141.096 75.792c0-3.224 2.613-5.837 5.837-5.837 3.224 0 5.837 2.613 5.837 5.837 0 3.224-2.613 5.837-5.837 5.837-3.224 0-5.837-2.613-5.837-5.837z" fill="#d5b263" data-fill-palette-color="primary"></path></g><g id="text-1"><path d="M47.651 133.12v0c-0.003 0.193-0.057 0.385-0.162 0.577v0c-0.095 0.174-0.227 0.34-0.398 0.497-0.174 0.162-0.364 0.254-0.569 0.274v0c-0.226 0.173-0.43 0.304-0.611 0.393-0.175 0.092-0.344 0.183-0.51 0.272v0c-0.079 0.059-0.155 0.114-0.23 0.166-0.073 0.062-0.16 0.115-0.263 0.161v0c-0.069 0.041-0.206 0.114-0.411 0.22-0.209 0.112-0.424 0.229-0.646 0.351-0.225 0.127-0.43 0.253-0.614 0.378-0.182 0.119-0.285 0.203-0.312 0.251v0c-0.023 0.042 0 0.129 0.069 0.26 0.072 0.125 0.117 0.215 0.133 0.271v0c0.021 0.089 0.045 0.176 0.07 0.259 0.015 0.086 0.039 0.173 0.069 0.26v0c0.071 0.171 0.137 0.343 0.198 0.516 0.065 0.168 0.126 0.349 0.184 0.544v0c0.123 0.347 0.264 0.689 0.424 1.024 0.157 0.342 0.265 0.701 0.326 1.077v0c0.169 0.162 0.22 0.369 0.154 0.62-0.057 0.249-0.15 0.463-0.279 0.643v0c0.004 0.049 0.006 0.097 0.004 0.142-0.008 0.043-0.011 0.091-0.009 0.147v0c-0.101 0.186-0.199 0.309-0.293 0.366-0.1 0.055-0.211 0.131-0.334 0.228v0c-0.122 0.082-0.225 0.178-0.308 0.288-0.08 0.104-0.172 0.187-0.275 0.248v0c-0.044 0.023-0.091 0.032-0.143 0.027-0.049 0.004-0.099 0.024-0.149 0.059v0c-0.091 0.052-0.18 0.124-0.269 0.216-0.086 0.101-0.178 0.184-0.275 0.248v0c-0.085 0.071-0.176 0.138-0.273 0.202-0.106 0.067-0.202 0.135-0.287 0.206v0c-0.053 0.041-0.109 0.1-0.167 0.178-0.06 0.068-0.149 0.094-0.264 0.078v0c-0.165 0.175-0.35 0.336-0.554 0.482-0.207 0.137-0.394 0.296-0.562 0.477v0c-0.119-0.025-0.282-0.033-0.491-0.022-0.212 0.017-0.363 0.001-0.453-0.047v0c-0.036-0.02-0.056-0.054-0.061-0.103 0.002-0.046-0.015-0.094-0.05-0.144v0c-0.021-0.019-0.054-0.037-0.099-0.054-0.043-0.008-0.076-0.018-0.1-0.031v0c-0.06-0.033-0.091-0.077-0.092-0.132-0.004-0.064-0.023-0.122-0.059-0.172v0c-0.043-0.008-0.082-0.013-0.118-0.017-0.043-0.008-0.082-0.021-0.118-0.041v0c-0.078-0.042-0.112-0.088-0.101-0.137 0.008-0.043-0.006-0.097-0.041-0.162v0c-0.099-0.147-0.146-0.254-0.14-0.321 0.009-0.073-0.006-0.132-0.045-0.176v0c0.247-0.255 0.514-0.48 0.799-0.676 0.285-0.195 0.566-0.397 0.843-0.605v0c0.079-0.074 0.167-0.135 0.263-0.184 0.094-0.058 0.189-0.119 0.286-0.183v0c0.079-0.059 0.185-0.133 0.32-0.223 0.141-0.087 0.276-0.185 0.405-0.294 0.135-0.106 0.257-0.207 0.364-0.305 0.113-0.094 0.193-0.183 0.239-0.267v0c0.085-0.156 0.105-0.301 0.06-0.434v0c-0.19-0.453-0.35-0.903-0.482-1.348-0.138-0.449-0.284-0.91-0.44-1.384v0c-0.112-0.295-0.235-0.606-0.367-0.935v0c-0.026-0.053-0.031-0.122-0.016-0.207 0.012-0.079 0.01-0.162-0.006-0.248v0c-0.001-0.055-0.016-0.106-0.045-0.153-0.035-0.05-0.051-0.106-0.05-0.167v0c-0.007-0.058 0.001-0.124 0.026-0.197 0.021-0.067 0.011-0.134-0.03-0.203v0c-0.025-0.083-0.076-0.154-0.154-0.212-0.072-0.054-0.121-0.128-0.148-0.221v0c0.056-0.016 0.09-0.044 0.103-0.084 0.017-0.045 0.035-0.086 0.055-0.122v0c0.042-0.078 0.11-0.116 0.201-0.112 0.082 0.006 0.15-0.039 0.202-0.136v0c0.097-0.064 0.164-0.102 0.202-0.112v0c0.293-0.238 0.596-0.459 0.908-0.663 0.319-0.2 0.644-0.398 0.976-0.591v0c0.103-0.061 0.205-0.119 0.304-0.174 0.094-0.058 0.197-0.119 0.309-0.182v0c0.079-0.059 0.148-0.114 0.208-0.167 0.063-0.044 0.14-0.079 0.233-0.107v0c0.26-0.092 0.489-0.19 0.685-0.294 0.196-0.104 0.384-0.255 0.562-0.454v0c0.041-0.048 0.11-0.116 0.204-0.204 0.092-0.083 0.189-0.162 0.293-0.238 0.11-0.073 0.213-0.134 0.309-0.182 0.106-0.051 0.192-0.059 0.258-0.024v0c0.06 0.033 0.131 0.102 0.214 0.21 0.085 0.101 0.164 0.186 0.234 0.256v0c0.053 0.06 0.111 0.119 0.173 0.175 0.068 0.06 0.136 0.109 0.202 0.145v0c0.048 0.026 0.104 0.037 0.169 0.033 0.058-0.007 0.118 0.006 0.178 0.038v0c0.09 0.049 0.166 0.11 0.228 0.183 0.068 0.076 0.144 0.144 0.227 0.205z" fill="#d5b263" data-fill-palette-color="secondary"></path><path d="M106.196 148.744l-0.142 0.027c-0.007 0.169-0.095 0.336-0.262 0.502v0c-0.102-0.023-0.199-0.055-0.293-0.095-0.089-0.049-0.188-0.073-0.296-0.072v0c-0.129-0.122-0.218-0.193-0.268-0.212-0.043-0.021-0.093-0.03-0.149-0.025v0c-0.091-0.034-0.178-0.087-0.261-0.16-0.081-0.066-0.161-0.122-0.242-0.167v0c-0.028 0.002-0.09-0.02-0.185-0.067-0.087-0.043-0.179-0.091-0.277-0.144-0.102-0.045-0.194-0.093-0.277-0.143-0.087-0.043-0.137-0.062-0.15-0.058v0c-0.137-0.04-0.261-0.088-0.374-0.143v0c-0.039-0.03-0.083-0.062-0.131-0.096-0.046-0.028-0.086-0.05-0.12-0.067v0c-0.11-0.006-0.206-0.031-0.287-0.076-0.089-0.049-0.177-0.106-0.264-0.17-0.083-0.073-0.171-0.13-0.264-0.17-0.089-0.049-0.184-0.074-0.286-0.075v0c-0.126-0.094-0.265-0.162-0.417-0.205-0.15-0.036-0.285-0.094-0.407-0.175v0c-0.109-0.064-0.218-0.121-0.329-0.169-0.119-0.053-0.24-0.099-0.362-0.137v0c-0.076-0.053-0.194-0.133-0.352-0.237-0.159-0.105-0.282-0.149-0.371-0.134v0c0.085 0.289 0.172 0.577 0.263 0.865 0.089 0.281 0.175 0.565 0.26 0.854v0c0.051 0.149 0.107 0.303 0.169 0.463 0.062 0.16 0.114 0.323 0.157 0.489v0c0.007 0.063 0.013 0.133 0.018 0.211 0.003 0.071 0.017 0.146 0.044 0.223v0c0.051 0.149 0.073 0.246 0.067 0.292 0.003 0.05 0.004 0.096 0.004 0.139v0c0.003 0.136 0.02 0.301 0.05 0.493 0.027 0.186 0.009 0.344-0.055 0.474v0c-0.132 0.059-0.238 0.085-0.321 0.078v0c-0.019 0.028-0.037 0.06-0.054 0.094-0.017 0.035-0.048 0.06-0.094 0.076v0c-0.035-0.017-0.085-0.025-0.149-0.025-0.056 0.005-0.097 0.012-0.123 0.02v0c-0.065 0.022-0.126 0.054-0.185 0.096-0.062 0.05-0.123 0.085-0.18 0.105v0c-0.065 0.022-0.125 0.025-0.182 0.008-0.048-0.013-0.104-0.008-0.169 0.014v0c-0.032 0.011-0.069 0.042-0.109 0.092-0.038 0.057-0.08 0.093-0.126 0.108v0c-0.065 0.022-0.123 0.031-0.175 0.027-0.045-0.006-0.096-0.007-0.153-0.002v0c-0.011-0.032-0.02-0.069-0.026-0.11-0.007-0.041-0.022-0.076-0.047-0.103v0l-0.237-0.44c-0.018-0.095-0.032-0.188-0.041-0.278-0.009-0.091-0.021-0.177-0.034-0.26v0c-0.053-0.199-0.108-0.39-0.164-0.573-0.056-0.183-0.114-0.366-0.176-0.547v0c-0.111-0.324-0.223-0.64-0.336-0.948-0.111-0.302-0.215-0.617-0.312-0.945v0c-0.025-0.114-0.047-0.233-0.068-0.357-0.027-0.121-0.06-0.24-0.1-0.356v0c-0.109-0.317-0.197-0.638-0.264-0.962-0.067-0.324-0.143-0.649-0.225-0.975v0c-0.06-0.261-0.131-0.508-0.211-0.741-0.08-0.233-0.159-0.466-0.239-0.699v0c-0.157-0.46-0.32-0.914-0.488-1.362-0.166-0.442-0.325-0.887-0.477-1.334v0c-0.051-0.149-0.113-0.352-0.187-0.608-0.073-0.257-0.153-0.447-0.238-0.57v0c-0.111-0.367-0.232-0.72-0.362-1.058v0c0.036-0.041 0.05-0.086 0.041-0.133-0.011-0.054-0.026-0.107-0.044-0.159v0l-0.086-0.252c0.072-0.169 0.144-0.266 0.215-0.291v0c0.065-0.022 0.128-0.037 0.191-0.044 0.069-0.009 0.14-0.004 0.211 0.015v0c0.149-0.094 0.253-0.137 0.314-0.129 0.054 0.01 0.118 0.017 0.192 0.021v0c0.093-0.046 0.145-0.115 0.157-0.206v0c0.145-0.021 0.224-0.012 0.237 0.028 0.013 0.039 0.038 0.07 0.076 0.093v0c0.127-0.029 0.205-0.067 0.232-0.112 0.036-0.041 0.085-0.08 0.145-0.115v0c0.119-0.012 0.203-0.008 0.254 0.011v0c0.027 0.078 0.072 0.156 0.135 0.236 0.07 0.077 0.13 0.19 0.181 0.339v0c0.04 0.117 0.071 0.229 0.093 0.337 0.022 0.108 0.05 0.211 0.084 0.308v0c0.06 0.175 0.124 0.341 0.192 0.498 0.068 0.157 0.131 0.32 0.189 0.489v0c0.018 0.052 0.031 0.101 0.04 0.149 0.007 0.041 0.019 0.087 0.037 0.139v0c0.162 0.473 0.337 0.944 0.527 1.414 0.19 0.47 0.368 0.948 0.534 1.433v0c0.009 0.026 0.013 0.06 0.014 0.104 0.003 0.05 0.021 0.083 0.056 0.1v0c0.132-0.291 0.228-0.591 0.288-0.901 0.062-0.303 0.139-0.608 0.229-0.914v0c0.085-0.239 0.157-0.513 0.218-0.823 0.067-0.312 0.123-0.592 0.168-0.838v0c0.019-0.093 0.035-0.182 0.05-0.267 0.012-0.091 0.029-0.18 0.05-0.266v0c0.004-0.074 0.019-0.144 0.047-0.212 0.019-0.072 0.029-0.147 0.031-0.227v0c0.032-0.119 0.053-0.235 0.065-0.348 0.021-0.108 0.047-0.222 0.078-0.341v0c0.023-0.123 0.057-0.236 0.102-0.338 0.038-0.1 0.074-0.206 0.107-0.319v0c0.042-0.195 0.09-0.392 0.145-0.592 0.052-0.206 0.094-0.412 0.125-0.618v0c0.103-0.1 0.189-0.209 0.257-0.326 0.071-0.111 0.15-0.218 0.238-0.32v0c0.185 0.118 0.314 0.2 0.388 0.247 0.078 0.038 0.168 0.047 0.269 0.027v0c0.039 0.03 0.07 0.067 0.092 0.109 0.024 0.05 0.057 0.082 0.098 0.097v0c0.153-0.038 0.241-0.068 0.262-0.09v0c0.059 0.045 0.126 0.073 0.202 0.083 0.082 0.008 0.157 0.015 0.224 0.021v0c0.011 0.032 0.024 0.071 0.04 0.117 0.016 0.045 0.034 0.079 0.056 0.1v0c0.169 0.007 0.283 0.098 0.343 0.273v0c-0.089 0.5-0.209 0.986-0.358 1.456-0.15 0.471-0.254 0.958-0.313 1.463v0c-0.018 0.158-0.045 0.312-0.081 0.462-0.042 0.152-0.062 0.303-0.061 0.455v0c-0.06 0.122-0.097 0.235-0.111 0.341-0.021 0.108-0.051 0.22-0.092 0.335v0c-0.032 0.076-0.061 0.158-0.089 0.248-0.023 0.08-0.05 0.162-0.079 0.244v0c-0.051 0.169-0.094 0.339-0.129 0.51-0.029 0.169-0.075 0.34-0.139 0.514v0c-0.036 0.15-0.081 0.302-0.135 0.459v0c-0.051 0.169-0.083 0.35-0.097 0.542-0.009 0.184-0.039 0.361-0.09 0.53v0c-0.053 0.184-0.07 0.313-0.052 0.387 0.016 0.067 0.022 0.191 0.019 0.373v0c0.131 0.107 0.27 0.197 0.418 0.269 0.154 0.07 0.31 0.136 0.469 0.197v0c0.144 0.103 0.298 0.184 0.463 0.243 0.165 0.059 0.336 0.127 0.514 0.204v0c0.07 0.034 0.128 0.068 0.176 0.102 0.052 0.026 0.111 0.049 0.176 0.07v0c0.187 0.102 0.397 0.189 0.631 0.262 0.241 0.069 0.469 0.136 0.687 0.199v0c0.178 0.076 0.398 0.171 0.661 0.283 0.267 0.104 0.546 0.222 0.837 0.354 0.289 0.125 0.551 0.249 0.788 0.37 0.237 0.121 0.363 0.205 0.378 0.25v0c-0.001 0.21-0.032 0.351-0.094 0.423-0.071 0.068-0.107 0.152-0.108 0.254v0c-0.069 0.052-0.1 0.088-0.093 0.107 0.009 0.026 0.005 0.078-0.012 0.156v0c-0.064 0.087-0.111 0.183-0.141 0.287-0.038 0.1-0.076 0.2-0.114 0.299v0c-0.039 0.035-0.077 0.07-0.116 0.105-0.039 0.035-0.059 0.082-0.061 0.14z" fill="#d5b263" data-fill-palette-color="secondary"></path></g></svg></g></svg></g></svg></g><g></g></svg></g></svg></g><path d="M0 41.215L0 1 152.77 1 152.77 41.215 152.201 41.215 152.201 1.569 0.569 1.569 0.569 41.215 0 41.215M0 205.985L0 246.2 152.77 246.2 152.77 205.985 152.201 205.985 152.201 245.631 0.569 245.631 0.569 205.985 0 205.985" fill="#d5b263" stroke="transparent" data-fill-palette-color="tertiary"></path></svg></g><defs></defs></svg><rect width="152.7696" height="247.2" fill="none" stroke="none" visibility="hidden"></rect></g></svg></g></svg>