<svg version="1.2" xmlns="http://www.w3.org/2000/svg" viewBox="0 0 3000 3000" width="3000" height="3000">
	<title>logo-no-background-pdf</title>
	<defs>
		<clipPath clipPathUnits="userSpaceOnUse" id="cp1">
			<path d="m0-921h3000v4842h-3000z"/>
		</clipPath>
	</defs>
	<style>
		.s0 { fill: #c9ad8b } 
		.s1 { fill: #d5b263 } 
	</style>
	<g id="Page 1" clip-path="url(#cp1)">
		<path id="Path 2" class="s0" d="m2203.5 1502c0 389.7-316 705.7-705.8 705.7-389.7 0-705.7-316-705.7-705.7 0-389.8 316-705.8 705.7-705.8 389.8 0 705.8 316 705.8 705.8z"/>
		<path id="Path 2" class="s1" d="m808.5 129.8q4.7 3.1 7.9 9.1 2.8 5.2 4 12 1.2 7.2-1.8 12.7 0.7 8.5 0.1 14.6-0.7 5.9-1 11.6 0.3 3 0.3 5.7 0.2 2.9-0.2 6.3 0 2.1-0.7 9.3-0.7 7.1-1.1 14.8-0.7 7.7-0.5 14.2 0 6.9 0.7 8.1 0.7 1.4 5.1 1.8 4.5 0.4 6.1 0.8 2.7 0.7 5.2 1.6 2.4 1 5.1 1.8 5.5 0.9 10.8 2.1 5.5 1.2 11.2 2.9 10.9 2.5 22.2 4.2 11.1 1.5 21.6 6.1 6.8-1.3 12.1 4.2 5.3 5.6 7.9 12 1.3 0.7 2.3 1.3 1.1 0.8 2.5 1.8 3 5.5 2.9 9-0.2 3.5 0.1 8.2 0.1 4.5 1.5 8.3 1.3 3.6 1.2 7.4-0.1 1.4-1 2.8-0.8 1.4-0.9 3 0 3.2 0.9 7.1 0.8 3.6 1.1 7.1 0.5 3.4 0.4 6.9-0.1 3.7 0.4 7.1 0.1 2 0.9 4.8c0.6 1.8 0.2 3.6-1.2 5.2q1.6 7.2 1.7 14.6 0.5 7.6 2 14.7-2.6 2.8-5.6 8.1-3.2 5.6-5.8 7.1-1.1 0.6-2.4-0.1-1.3-0.7-3.1-0.6-0.9 0-1.9 1-0.9 0.9-1.6 1.3-1.7 1-3.4 0.1-1.6-0.8-3.4-0.7-0.8 0.9-1.7 1.8-0.7 0.8-1.8 1.4-2.4 1.4-3.4 0.3-1.1-1-3.4-1.1-5.2 0.1-6.9-1.3-1.6-1.3-3.4-1.2-2.4-10.3-2.7-20.7-0.2-10.4-1-20.7-0.5-3.4-0.2-6.8 0.3-3.1 0.2-6.7c-0.2-2.1-0.3-4.7-0.3-7.9q0-5-0.5-10-0.5-5.3-1-9.6-0.8-4.3-2.1-6.8-2.6-4.8-6.6-5.8-14.6-2.9-28.1-6.7-13.5-3.9-28.2-7.7c-6.1-1.4-12.6-2.7-19.5-4q-2-0.3-3.9-2-1.8-1.8-4.1-2.6-1.5-1-3.1-1-1.8 0-3.3-1-1.8-0.9-3.2-2.6-1.3-1.6-3.7-1.7-2.7-0.8-5.2 0.1-2.7 1-5.4 0.2 0.5-1.7-0.3-2.6-0.8-1.2-1.4-2.3-1.3-2.4 0.2-4.6 1.6-2.2 0.1-4.9-0.3-3.5 0.1-4.6-1.2-11.5-1.2-22.7 0.3-11.4 0.7-22.8 0.3-3.6 0.5-7.1 0.2-3.6 0.3-7.1-0.3-3-0.4-5.4-0.2-2.5 0.7-5 1.7-8.3 2.5-14.9 0.5-6.6-1.5-14.5-0.6-2-1.2-5.6-0.6-3.7-0.7-7.6-0.1-4 0.1-7.4 0.5-3.4 2.6-4.5 1.8-1 5.7-1.3 4.1-0.4 7-1.1 2.3-0.3 4.9-1 2.6-0.7 4.7-1.9 1.3-0.7 2.2-2.3 0.9-1.7 2.7-2.6 2.8-1.5 5.6-1.9 3-0.5 6-1.6zm1174.1 227.2l-2.6-1.3q-3.4 3.7-10.3 4.7-2.2-2.4-3.3-5.2-1.5-2.6-4.1-4.8-0.8-5.3-1.6-6.7-0.7-1-2.1-1.9-1.6-2.7-2.2-5.9c-0.4-2.1-1-4-1.7-5.5q-0.7-0.6-2.1-3.4-1.3-2.8-2.8-5.9-1.4-2.8-2.6-5.6-1.2-2.7-1.6-2.8-2.6-3.5-4.3-6.8-0.3-1.4-0.8-3.1-0.5-1.6-1-2.7-2.7-2.1-3.7-4.8-1.2-2.6-2-5.8-0.8-3.3-2.2-6.1-1.3-2.5-3.5-4.6-1.4-4.7-4.2-8.4-3-3.6-4.5-7.9-1.2-3.4-3.1-6.6-1.8-3.4-4-6.7-0.6-2.8-2.6-8.1-1.9-5.6-4.3-6.8-3.3 8.4-6.5 17.1-3.1 8.5-6.4 17-1.5 4.4-3 9.4-1.4 4.8-3.5 9.6-1 1.6-2.2 3.5-1.3 1.9-2.1 4.2-1.5 4.4-2.5 5.5-1.1 1.1-1.8 2.1-2.4 3.3-5.2 8.4c-1.9 3.4-4.1 5.8-6.7 7.1q-4.3-1-6.2-2.9-0.8 0.5-1.9 1-1 0.5-2.5 0-0.5-1-2-2.2-1.6-1.1-2.3-1.4-1.7-0.6-4.1-0.5-2.3 0-4.2-0.6c-1.2-0.4-2.1-1.1-2.8-2q-1-1.4-2.9-2.1-1.1-0.4-3 0.3-1.9 0.6-3.3 0.1c-1.2-0.4-2.2-1-3-1.7q-1.2-1-2.5-1.9 0.3-1.1 0.9-2.2 0.6-1.1 0.6-2.4l1.7-9.8q1.2-2.4 2.7-4.8 1.5-2.5 2.6-4.7 2.4-5.7 4.4-11 2.1-5.4 4-11 3.3-9.7 6.3-19.1 3-9.3 6.7-18.9 1.6-3.3 3.3-6.6 1.8-3.4 2.9-6.6 3.3-9.7 7.7-18.7 4.3-8.9 8.4-18.3 3.3-7.2 5.7-14.5 2.4-7 4.9-14 4.6-13.7 8.9-27.6 4.3-13.6 8.9-27.1 1.5-4.4 4.5-12.1 3-7.5 3.2-11.9 4.1-10.7 7.3-21.3 1.8-0.2 2.5-1.7 0.7-1.3 1.2-2.8l1.8-5.3q4.5-2.5 6.8-1.7 1.9 0.6 3.4 1.6 1.8 1 3.4 2.6 5.3 0.7 6.3 2 1.4 1.1 3 2.5 3.2 0.6 5.1-1.1 3.7 2.2 3.4 3.1-0.4 1.2-0.1 2.6 3.7 1.6 5.2 1.1 1.6-0.5 3.7-0.3 3.1 2 3.9 3.5-0.8 2.3-0.8 5.5 0.2 3-1.3 7.6-1.1 3.3-2.6 6.3-1.5 3.2-2.5 6-1.8 5.3-3.1 10.2-1.3 5.1-3 10.2-0.6 1.6-1.2 2.8-0.6 1.3-1.2 2.8-4.8 14.1-9 28.8-4.2 14.9-9.2 29.4c-0.1 0.5-0.5 1.2-1 2q-0.9 1.2-0.4 2.2 8.8-4.6 15.8-10.7 7.2-6.1 14.9-11.8 6.2-4 13.7-10.4 7.3-6.2 12.8-11.3 2.3-1.8 4.2-3.5 1.9-1.9 4-3.7 1.5-1.7 3.4-2.9 1.8-1.1 3.4-3.1 2.9-2.4 5.4-4.7 2.2-2.2 5.2-4.6 2.9-2.4 5.8-4 3-1.8 5.6-3.8 4.6-3.7 9.8-7.7 5-3.9 9.4-8.1 4.4-0.6 8.1-2.1 3.9-1.4 8-2.2 1.9 6.2 3 8.7 1 2.5 3.8 3.7 0.4 1.4 0.1 2.9-0.3 1.6 0.5 2.8 4.5 1.9 5.4 1.8 0.3 2.2 2 3.9 1.8 1.7 3.5 2.9-0.4 1.1-0.8 2.5-0.5 1.3-0.4 2.2 3.8 3.4 2 8.5-11.4 10.4-23.6 18.7c-8.2 5.7-15.9 12.3-23.1 19.6q-3.2 3.4-7 6.3-3.7 2.8-6.5 6.5-3.6 1.8-6 3.9-2.5 2.3-5.7 4.2-2 1.5-4.1 2.9-2.3 1.5-4.5 2.9-4.4 3.2-8.2 6.6-3.9 3.5-8.7 6.3c-2.3 2.1-4.8 4-7.7 5.7-3 2.1-5.7 4.6-8.3 7.4q-3.6 4.5-8 7.4c-3.1 2.4-4.9 4.2-5.5 5.6q-0.9 1.8-4.3 6.2 1.1 4.8 3.4 9.4 2.3 4.6 4.9 8.7 1.6 5.3 4.4 9.6 2.9 4.6 5.8 9.8 0.8 1.8 1.5 3.5 0.7 1.8 1.8 3.4 2.5 6 7 12 4.3 6.1 8.4 11.6 2.7 5.1 7 12.5 4.3 7.7 8.9 16.1 4.6 8.4 8.1 15.7 3.3 7.1 2.8 8.6-3.8 4.9-6.6 5.4-2.9 0.5-5 2.8-2.5 0-2.8 0.7-0.2 0.6-2 2.1-3.1 1.1-5.8 2.9c-1.8 1.1-3.6 2.2-5.4 3.3q-1.8 0.2-3.1 0.4-1.6 0.1-2.8 1.4z"/>
		<path id="Path 4" class="s1" d="m0.4 1490.3c0-63.2 51.2-114.4 114.4-114.4 63.2 0 114.4 51.2 114.4 114.4 0 63.2-51.2 114.5-114.4 114.5-63.2 0-114.4-51.3-114.4-114.5z"/>
		<path id="Path 5" class="s1" d="m2766.3 1490.3c0-63.2 51.2-114.4 114.4-114.4 63.2 0 114.4 51.2 114.4 114.4 0 63.2-51.2 114.5-114.4 114.5-63.2 0-114.4-51.3-114.4-114.5zm-1831.8 1123.9q-0.1 5.6-3.2 11.3-2.8 5.1-7.8 9.7-5.1 4.8-11.2 5.4-6.6 5.1-11.9 7.7c-3.5 1.8-6.8 3.6-10 5.3q-2.4 1.7-4.5 3.3-2.2 1.8-5.2 3.1-2 1.2-8.1 4.3-6.1 3.3-12.6 6.9-6.6 3.8-12.1 7.4c-3.5 2.4-5.5 4-6.1 4.9q-0.7 1.3 1.4 5.1 2.1 3.7 2.6 5.4 0.6 2.6 1.4 5c0.2 1.7 0.7 3.4 1.3 5.1q2.1 5.1 3.9 10.1 1.9 5 3.6 10.7c2.4 6.8 5.2 13.5 8.3 20.1q4.6 10 6.4 21.1 5 4.8 3 12.1-1.7 7.4-5.5 12.7 0.2 1.4 0.1 2.7c-0.1 0.9-0.2 1.8-0.2 2.9q-2.9 5.5-5.7 7.2-2.9 1.6-6.5 4.5-3.6 2.4-6.1 5.6-2.3 3.1-5.4 4.9-1.3 0.7-2.8 0.5-1.4 0.1-2.9 1.2-2.7 1.5-5.3 4.2-2.5 3-5.4 4.9-2.5 2-5.3 3.9-3.1 2-5.6 4.1-1.6 1.2-3.3 3.4-1.8 2-5.2 1.6-4.8 5.1-10.9 9.4-6 4.1-11 9.4-3.4-0.8-9.6-0.5-6.2 0.5-8.9-0.9-1-0.6-1.2-2 0.1-1.4-0.9-2.8-0.7-0.6-2-1.1-1.2-0.2-1.9-0.6-1.8-1-1.8-2.6-0.2-1.9-1.2-3.3-1.3-0.3-2.3-0.4-1.3-0.2-2.3-0.8-2.3-1.2-2-2.7 0.2-1.2-0.8-3.1-2.9-4.4-2.8-6.3 0.3-2.2-0.8-3.5 7.2-7.5 15.6-13.2 8.4-5.8 16.5-11.9 2.4-2.2 5.2-3.6 2.8-1.7 5.6-3.6 2.3-1.7 6.3-4.4 4.1-2.5 7.9-5.7 4-3.1 7.2-6 3.3-2.8 4.6-5.2 2.5-4.6 1.2-8.6c-3.7-8.8-6.8-17.7-9.4-26.4q-4.1-13.2-8.7-27.1c-2.2-5.8-4.6-11.9-7.2-18.3q-0.7-1.6-0.3-4.1 0.4-2.3-0.1-4.9 0-1.6-0.9-3-1-1.4-0.9-3.2-0.3-1.7 0.5-3.9 0.6-2-0.6-4-0.8-2.4-3-4.1-2.2-1.6-2.9-4.4 1.6-0.4 2-1.6 0.5-1.3 1.1-2.4c0.8-1.5 2.1-2.3 3.9-2.2q2.4 0.2 3.9-2.7 2.9-1.9 4-2.2 8.6-7 17.8-13 9.4-5.8 19.1-11.5 3.1-1.8 6-3.4 2.8-1.8 6.1-3.6 2.3-1.7 4-3.3 1.9-1.3 4.6-2.1 7.7-2.7 13.4-5.7 5.8-3.1 11-8.9 1.3-1.5 4-4 2.7-2.5 5.8-4.7 3.2-2.2 6.1-3.6 3.1-1.5 5-0.5c1.2 0.7 2.6 2 4.2 4.2 1.7 1.9 3.2 3.6 4.6 5q1.6 1.8 3.4 3.4c1.3 1.2 2.7 2.2 3.9 2.9q1.5 0.7 3.4 0.6 1.7-0.2 3.4 0.7 2.7 1.5 4.5 3.6 2 2.3 4.5 4.1zm1147.6 306.2l-2.7 0.6q-0.3 4.9-5.2 9.8-3-0.7-5.7-1.9-2.6-1.4-5.8-1.4-3.8-3.6-5.3-4.1-1.2-0.7-2.9-0.5-2.7-1-5.1-3.2-2.4-1.9-4.8-3.2-0.8 0-3.6-1.3-2.5-1.3-5.4-2.9-3-1.3-5.5-2.8-2.5-1.2-2.9-1.1-4-1.2-7.3-2.8-1.2-0.9-2.6-1.9-1.3-0.8-2.3-1.3-3.3-0.2-5.7-1.5-2.6-1.4-5.1-3.3-2.5-2.2-5.2-3.4-2.6-1.4-5.6-1.4-3.7-2.8-8.2-4-4.4-1.1-8-3.5-3.2-1.9-6.4-3.3-3.5-1.6-7.1-2.7c-1.5-1-3.8-2.6-6.9-4.6q-4.7-3.1-7.3-2.6 2.5 8.4 5.2 16.9 2.6 8.3 5.1 16.7 1.5 4.4 3.3 9.1 1.8 4.7 3 9.6 0.2 1.9 0.4 4.1 0.1 2.2 0.9 4.4 1.5 4.4 1.3 5.7 0.1 1.5 0 2.8 0.1 4 1 9.6 0.8 5.5-1 9.3-3.9 1.8-6.3 1.6-0.6 0.8-1.1 1.8-0.5 1-1.8 1.5-1.1-0.5-3-0.5-1.6 0.2-2.4 0.4-1.9 0.6-3.6 1.9c-1.2 1-2.4 1.6-3.5 2-1.3 0.5-2.5 0.5-3.6 0.2q-1.4-0.4-3.3 0.3-1 0.3-2.1 1.8-1.2 1.6-2.5 2.1-1.9 0.6-3.4 0.5-1.4-0.2-3 0-0.4-1-0.6-2.2c-0.1-0.8-0.4-1.5-0.9-2l-4.6-8.6q-0.6-2.8-0.8-5.5c-0.2-1.8-0.4-3.4-0.7-5.1q-1.6-5.8-3.2-11.2-1.6-5.4-3.5-10.7-3.2-9.6-6.5-18.6-3.3-8.9-6.2-18.5-0.7-3.4-1.3-7-0.8-3.6-2-7-3.2-9.3-5.1-18.9-2-9.5-4.4-19.1-1.8-7.7-4.2-14.5-2.3-6.9-4.7-13.7-4.6-13.5-9.5-26.7-4.9-13-9.4-26.2-1.5-4.4-3.6-11.9-2.2-7.5-4.7-11.2-3.3-10.8-7.1-20.7 1.1-1.2 0.8-2.6-0.3-1.6-0.9-3.1l-1.6-5q2.1-4.9 4.2-5.7 1.9-0.6 3.7-0.8 2-0.3 4.1 0.3 4.4-2.8 6.2-2.6 1.6 0.3 3.8 0.4 2.7-1.3 3-4 4.3-0.6 4.7 0.6 0.4 1.1 1.5 1.8 3.7-0.9 4.5-2.2 1.1-1.2 2.9-2.3 3.5-0.3 4.9 0.2 0.8 2.3 2.7 4.7 2 2.2 3.5 6.6 1.2 3.5 1.9 6.6 0.6 3.2 1.6 6.1 1.8 5.1 3.8 9.7 2 4.6 3.7 9.6 0.5 1.5 0.8 2.9 0.2 1.2 0.7 2.8 4.7 13.9 10.3 27.7 5.6 13.8 10.5 28.1 0.2 0.7 0.3 2 0 1.5 1.1 2 3.8-8.6 5.6-17.7 1.8-8.9 4.5-17.9 2.5-7 4.3-16.2 1.9-9.1 3.3-16.4 0.5-2.7 0.9-5.2 0.4-2.7 1-5.2 0.1-2.2 0.9-4.2 0.6-2.1 0.7-4.4 0.9-3.5 1.2-6.8 0.6-3.2 1.6-6.7 0.6-3.7 2-6.7 1.1-2.9 2.1-6.2 1.2-5.7 2.8-11.6 1.5-6.1 2.4-12.1 3.1-3 5.1-6.4 2.1-3.3 4.7-6.3 5.4 3.5 7.6 4.8 2.3 1.2 5.2 0.6 1.2 0.9 1.8 2.1 0.7 1.5 2 1.9 4.5-1.1 5.1-1.8 1.7 1.4 3.9 1.7 2.5 0.2 4.4 0.4 0.4 0.9 0.8 2.3c0.3 0.9 0.7 1.5 1.1 1.9q5 0.2 6.7 5.4c-1.7 9.8-4.1 19.3-7 28.5q-4.4 13.9-6.1 28.7-0.5 4.7-1.6 9.1-1.2 4.4-1.2 8.9-1.8 3.6-2.2 6.7-0.6 3.2-1.8 6.5c-0.6 1.5-1.2 3.1-1.7 4.9-0.5 1.6-1 3.2-1.6 4.8q-1.5 5-2.5 10-0.8 4.9-2.7 10.1-1.1 4.4-2.7 9-1.5 4.9-1.9 10.6-0.2 5.4-1.7 10.4-1.6 5.4-1.1 7.6 0.5 1.9 0.4 7.3 3.9 3.1 8.2 5.2 4.5 2.1 9.2 3.9 4.2 3 9.1 4.8 4.8 1.7 10.1 4 2 1 3.4 2 1.5 0.7 3.5 1.3 5.5 3 12.3 5.2c4.8 1.3 9.2 2.6 13.5 3.9q5.2 2.2 13 5.5 7.8 3.1 16.4 7 8.5 3.7 15.4 7.2 7 3.6 7.4 4.9 0 6.2-1.8 8.3-2.1 2-2.1 5-2.1 1.5-1.9 2.1 0.3 0.8-0.2 3-1.9 2.6-2.8 5.7-1.1 2.9-2.2 5.8-1.1 1.1-2.3 2.1-1.1 1-1.2 2.7z"/>
	</g>
</svg>